<svg width="21" height="21" viewBox="0 0 21 21" fill="none" xmlns="http://www.w3.org/2000/svg">
<path d="M9.47371 1.21285C9.77356 0.292575 11.0755 0.292576 11.3753 1.21285L13.1264 6.58725C13.2605 6.99888 13.6443 7.27746 14.0772 7.27746H19.738C20.7074 7.27746 21.1097 8.51849 20.3247 9.08725L15.7498 12.4019C15.3984 12.6565 15.2513 13.1088 15.3857 13.5215L17.1343 18.8881C17.4343 19.8089 16.381 20.5759 15.5968 20.0077L11.0112 16.6853C10.6612 16.4317 10.1878 16.4317 9.8378 16.6853L5.25225 20.0077C4.46799 20.5759 3.4147 19.8089 3.71472 18.8881L5.4633 13.5215C5.59775 13.1088 5.45067 12.6565 5.09921 12.4019L0.524337 9.08725C-0.26067 8.51849 0.141661 7.27746 1.11106 7.27746H6.77181C7.20474 7.27746 7.5885 6.99888 7.72262 6.58725L9.47371 1.21285Z" fill="#BEBEBE"/>
</svg>
